<svg width="24" height="25" viewBox="0 0 24 25" fill="none" xmlns="http://www.w3.org/2000/svg">
<path d="M1.33325 12.2696V19.4002C1.33325 20.8937 1.33325 21.641 1.6239 22.2114C1.87956 22.7132 2.28722 23.1207 2.78898 23.3764C3.35885 23.6668 4.10524 23.6668 5.5958 23.6668H18.404C19.8946 23.6668 20.6399 23.6668 21.2098 23.3764C21.7115 23.1207 22.1206 22.7132 22.3762 22.2114C22.6666 21.6415 22.6666 20.8954 22.6666 19.4049V12.2696C22.6666 11.5572 22.666 11.2008 22.5793 10.8692C22.5026 10.5754 22.3766 10.2974 22.206 10.0462C22.0136 9.76269 21.746 9.52759 21.2098 9.05844L14.8098 3.45843C13.8143 2.58739 13.3166 2.15208 12.7564 1.98643C12.2628 1.84046 11.7367 1.84046 11.2431 1.98643C10.6834 2.15196 10.1864 2.58685 9.1924 3.45658L2.79028 9.05844C2.25411 9.52759 1.98664 9.76269 1.79419 10.0462C1.62364 10.2974 1.49665 10.5754 1.41988 10.8692C1.33325 11.2008 1.33325 11.5572 1.33325 12.2696Z" stroke="#5C39E1" stroke-width="2" stroke-linecap="round" stroke-linejoin="round"/>
</svg>
